<svg width="20" height="20" viewBox="0 0 20 20" fill="none" xmlns="http://www.w3.org/2000/svg">
<path fill-rule="evenodd" clip-rule="evenodd" d="M6.22081 0.888343C7.19831 0.843343 7.50998 0.833344 9.99998 0.833344C12.49 0.833344 12.8016 0.844177 13.7783 0.888343C14.755 0.93251 15.4216 1.08834 16.005 1.31418C16.6158 1.54501 17.17 1.90584 17.6283 2.37251C18.095 2.83001 18.455 3.38334 18.685 3.99501C18.9116 4.57834 19.0666 5.24501 19.1116 6.22001C19.1566 7.19918 19.1666 7.51084 19.1666 10C19.1666 12.49 19.1558 12.8017 19.1116 13.7792C19.0675 14.7542 18.9116 15.4208 18.685 16.0042C18.455 16.6159 18.0944 17.1702 17.6283 17.6283C17.17 18.095 16.6158 18.455 16.005 18.685C15.4216 18.9117 14.755 19.0667 13.78 19.1117C12.8016 19.1567 12.49 19.1667 9.99998 19.1667C7.50998 19.1667 7.19831 19.1558 6.22081 19.1117C5.24581 19.0675 4.57915 18.9117 3.99581 18.685C3.38408 18.455 2.82983 18.0944 2.37165 17.6283C1.9053 17.1706 1.54441 16.6166 1.31415 16.005C1.08831 15.4217 0.933313 14.755 0.888313 13.78C0.843313 12.8008 0.833313 12.4892 0.833313 10C0.833313 7.51001 0.844146 7.19834 0.888313 6.22168C0.93248 5.24501 1.08831 4.57834 1.31415 3.99501C1.54475 3.38341 1.90591 2.82944 2.37248 2.37168C2.83001 1.90543 3.38371 1.54455 3.99498 1.31418C4.57831 1.08834 5.24498 0.933343 6.21998 0.888343H6.22081ZM13.7041 2.53834C12.7375 2.49418 12.4475 2.48501 9.99998 2.48501C7.55248 2.48501 7.26248 2.49418 6.29581 2.53834C5.40165 2.57918 4.91665 2.72834 4.59331 2.85418C4.16581 3.02084 3.85998 3.21834 3.53915 3.53918C3.23502 3.83505 3.00096 4.19524 2.85415 4.59334C2.72831 4.91668 2.57915 5.40168 2.53831 6.29584C2.49415 7.26251 2.48498 7.55251 2.48498 10C2.48498 12.4475 2.49415 12.7375 2.53831 13.7042C2.57915 14.5983 2.72831 15.0833 2.85415 15.4067C3.00081 15.8042 3.23498 16.165 3.53915 16.4608C3.83498 16.765 4.19581 16.9992 4.59331 17.1458C4.91665 17.2717 5.40165 17.4208 6.29581 17.4617C7.26248 17.5058 7.55165 17.515 9.99998 17.515C12.4483 17.515 12.7375 17.5058 13.7041 17.4617C14.5983 17.4208 15.0833 17.2717 15.4066 17.1458C15.8341 16.9792 16.14 16.7817 16.4608 16.4608C16.765 16.165 16.9991 15.8042 17.1458 15.4067C17.2716 15.0833 17.4208 14.5983 17.4616 13.7042C17.5058 12.7375 17.515 12.4475 17.515 10C17.515 7.55251 17.5058 7.26251 17.4616 6.29584C17.4208 5.40168 17.2716 4.91668 17.1458 4.59334C16.9791 4.16584 16.7816 3.86001 16.4608 3.53918C16.1649 3.23507 15.8047 3.00102 15.4066 2.85418C15.0833 2.72834 14.5983 2.57918 13.7041 2.53834ZM8.82915 12.8258C9.48303 13.098 10.2111 13.1348 10.8891 12.9298C11.567 12.7248 12.1528 12.2908 12.5463 11.7019C12.9398 11.113 13.1167 10.4057 13.0467 9.70093C12.9767 8.99612 12.6641 8.33749 12.1625 7.83751C11.8427 7.51791 11.456 7.27319 11.0303 7.12097C10.6045 6.96874 10.1503 6.91281 9.70039 6.95719C9.25045 7.00157 8.81594 7.14516 8.42815 7.37762C8.04036 7.61008 7.70893 7.92563 7.45773 8.30155C7.20653 8.67747 7.0418 9.10442 6.97541 9.55164C6.90901 9.99887 6.94261 10.4553 7.07376 10.8879C7.20492 11.3206 7.43038 11.7189 7.73391 12.0539C8.03745 12.389 8.4115 12.6527 8.82915 12.8258ZM6.66831 6.66834C7.10583 6.23082 7.62525 5.88376 8.19689 5.64698C8.76854 5.41019 9.38123 5.28832 9.99998 5.28832C10.6187 5.28832 11.2314 5.41019 11.8031 5.64698C12.3747 5.88376 12.8941 6.23082 13.3316 6.66834C13.7692 7.10586 14.1162 7.62528 14.353 8.19692C14.5898 8.76857 14.7117 9.38126 14.7117 10C14.7117 10.6188 14.5898 11.2314 14.353 11.8031C14.1162 12.3747 13.7692 12.8942 13.3316 13.3317C12.448 14.2153 11.2496 14.7117 9.99998 14.7117C8.75036 14.7117 7.55193 14.2153 6.66831 13.3317C5.7847 12.4481 5.28829 11.2496 5.28829 10C5.28829 8.75039 5.7847 7.55196 6.66831 6.66834ZM15.7566 5.99001C15.8651 5.88773 15.9519 5.76474 16.0119 5.62832C16.0719 5.4919 16.104 5.34482 16.1062 5.19578C16.1083 5.04675 16.0806 4.8988 16.0245 4.76068C15.9685 4.62257 15.8853 4.4971 15.7799 4.39171C15.6746 4.28632 15.5491 4.20314 15.411 4.14711C15.2729 4.09107 15.1249 4.06332 14.9759 4.0655C14.8268 4.06767 14.6798 4.09972 14.5433 4.15976C14.4069 4.21979 14.2839 4.30659 14.1816 4.41501C13.9827 4.62587 13.8738 4.90594 13.8781 5.19578C13.8823 5.48562 13.9993 5.76241 14.2043 5.96738C14.4092 6.17235 14.686 6.28937 14.9759 6.29359C15.2657 6.29782 15.5458 6.18892 15.7566 5.99001Z" fill="white"/>
</svg>
