<svg width="22" height="22" viewBox="0 0 22 22" fill="none" xmlns="http://www.w3.org/2000/svg">
<path d="M4.56774 6.59724C5.67544 6.59724 6.57341 5.69927 6.57341 4.59157C6.57341 3.48387 5.67544 2.58591 4.56774 2.58591C3.46004 2.58591 2.56207 3.48387 2.56207 4.59157C2.56207 5.69927 3.46004 6.59724 4.56774 6.59724Z" fill="white"/>
<path d="M8.46727 8.11707V19.2445H11.9222V13.7417C11.9222 12.2897 12.1953 10.8836 13.9957 10.8836C15.7713 10.8836 15.7933 12.5437 15.7933 13.8334V19.2454H19.25V13.1432C19.25 10.1457 18.6047 7.84207 15.1012 7.84207C13.4191 7.84207 12.2916 8.76515 11.8305 9.63874H11.7838V8.11707H8.46727ZM2.8371 8.11707H6.29751V19.2445H2.8371V8.11707Z" fill="white"/>
</svg>
