<svg width="65" height="65" viewBox="0 0 65 65" fill="none" xmlns="http://www.w3.org/2000/svg">
<path d="M11.7 33.4999C11.7 34.5632 11.7 35.6429 11.7 36.7062C11.7 38.0313 13.7604 38.0313 13.7604 36.7062C13.7604 35.6429 13.7604 34.5632 13.7604 33.4999C13.7767 32.1749 11.7 32.1585 11.7 33.4999ZM14.8396 33.4999C14.8396 34.5632 14.8396 35.6429 14.8396 36.7062C14.8396 38.0313 16.9 38.0313 16.9 36.7062C16.9 35.6429 16.9 34.5632 16.9 33.4999C16.9 32.1749 14.8396 32.1585 14.8396 33.4999Z" fill="#016B38"/>
<path d="M62.017 46.4746C62.1429 46.381 62.253 46.2249 62.3002 46.0376C62.4104 45.8191 62.4261 45.6162 62.3632 45.4445C62.3632 44.8046 62.1743 44.2427 61.9855 43.5871C61.718 42.6038 61.482 41.6205 61.1987 40.6528C60.8998 39.6383 60.113 39.2949 59.2161 39.1544L56.2893 15.3834C56.2736 15.1961 56.2578 15.0245 56.2263 14.8372L56.2106 14.7279C55.8172 12.9486 54.2437 11.7 52.4026 11.7C50.5144 11.7 48.9251 13.0422 48.5789 14.8372L39.2793 31.4441L37.5326 21.6891C37.3753 20.8306 36.6357 20.2219 35.7703 20.2219H25.2747C24.425 20.2219 23.6855 20.815 23.5124 21.6423L21.986 29.0873H15.9279V28.0415C15.9279 27.2611 15.3457 26.6212 14.6061 26.4963C14.6061 25.1385 14.6061 23.7649 14.6061 22.407C14.6061 20.8931 13.2214 20.2688 12.1199 19.3947C11.1286 18.6143 9.72813 19.9878 10.7195 20.7838C11.3489 21.2833 11.994 21.7983 12.6234 22.2978C12.6234 23.7025 12.6234 25.0916 12.6234 26.4963C11.8681 26.6212 11.3017 27.2611 11.3017 28.0415V29.0873H6.94296C5.47956 29.0873 4.28367 30.2735 4.28367 31.725V40.2314C4.28367 41.6829 5.47956 42.8692 6.94296 42.8692H10.4205C10.4205 43.3062 10.4205 43.7276 10.4205 44.1646H7.06884C4.59838 44.1334 2.59998 46.1312 2.59998 48.5661C2.59998 51.0165 4.59838 52.9988 7.06884 52.9988H40.1133C42.5837 52.9988 44.5821 51.0165 44.5821 48.5661C44.5821 46.1156 42.5837 44.1334 40.1133 44.1334H36.2109C36.2109 43.6964 36.2109 43.275 36.2109 42.8379H38.6027C39.4681 42.8379 40.2234 42.4321 40.7112 41.7922L42.1431 41.3708C43.0715 41.1054 43.8111 40.4343 44.1887 39.5446L51.6788 21.7203L54.7 38.6706C53.8975 38.6862 53.1894 38.9047 52.796 39.7007C52.0722 41.1679 51.5214 42.7443 50.8763 44.2427C50.121 46.022 49.1769 47.8325 48.5947 49.6743C48.5632 49.6743 48.5317 49.6743 48.516 49.6743C48.2799 49.6274 47.9338 49.6586 47.6977 49.6743C46.7536 49.7523 46.2343 50.3142 45.9039 51.1726C45.007 53.4982 47.7922 53.2953 49.1926 53.2953C51.3641 53.2953 53.5356 53.2953 55.6913 53.2953C56.368 53.2953 57.0289 53.3734 57.5639 52.8895C58.0674 52.4369 58.4293 51.7033 58.807 51.157C59.8927 49.5962 60.947 48.0354 62.017 46.4746ZM60.412 45.4289C60.412 45.4445 60.412 45.4601 60.412 45.4757C60.412 45.4757 60.412 45.4757 60.412 45.4913C60.412 45.5381 60.3962 45.5381 60.412 45.4289ZM52.4184 13.651C53.2996 13.651 54.0706 14.2441 54.2752 15.0869L54.2909 15.1337C54.3224 15.2586 54.3381 15.3678 54.3381 15.4927V15.5083V15.5551C54.3381 16.6009 53.4884 17.4437 52.4341 17.4437C52.3554 17.4437 52.2925 17.4437 52.2295 17.4281C51.2539 17.3188 50.5301 16.5072 50.5301 15.5395C50.4986 14.4938 51.3641 13.651 52.4184 13.651ZM37.7372 33.9414H32.9222L31.9151 22.1729H35.6287L37.7372 33.9414ZM25.4321 22.1573H29.9167L30.9238 33.9258H29.1929C29.1142 33.9258 29.0198 33.8945 28.9568 33.8477L23.89 29.6804L25.4321 22.1573ZM13.2843 28.4161H13.961V29.0717H13.2843V28.4161ZM36.3997 46.1C35.9276 46.8024 35.6444 47.6608 35.6444 48.5661C35.6444 49.4713 35.9276 50.3298 36.3997 51.0321H33.3785C33.7719 50.5795 34.0079 49.9864 34.0079 49.3309C34.0079 47.8949 32.8278 46.7087 31.3644 46.7087C29.9167 46.7087 28.7208 47.8793 28.7208 49.3309C28.7208 49.9708 28.9568 50.5639 29.3502 51.0321H25.5737C25.9671 50.5795 26.2031 49.9864 26.2031 49.3309C26.2031 47.8949 25.023 46.7087 23.5596 46.7087C22.1119 46.7087 20.916 47.8793 20.916 49.3309C20.916 49.9708 21.1521 50.5639 21.5454 51.0321H17.7689C18.1623 50.5795 18.3984 49.9864 18.3984 49.3309C18.3984 47.8949 17.2182 46.7087 15.7548 46.7087C14.3071 46.7087 13.1112 47.8793 13.1112 49.3309C13.1112 49.9708 13.3473 50.5639 13.7407 51.0321H10.7824C11.2545 50.3298 11.5377 49.4713 11.5377 48.5661C11.5377 47.6452 11.2545 46.8024 10.7824 46.1H36.3997ZM30.7192 49.3465C30.7192 48.9875 31.0182 48.6909 31.3801 48.6909C31.742 48.6909 32.041 48.9875 32.041 49.3465C32.041 49.7055 31.742 50.002 31.3801 50.002C31.0182 49.9864 30.7192 49.7055 30.7192 49.3465ZM22.9302 49.3465C22.9302 48.9875 23.2291 48.6909 23.591 48.6909C23.953 48.6909 24.2519 48.9875 24.2519 49.3465C24.2519 49.7055 23.953 50.002 23.591 50.002C23.2291 49.9864 22.9302 49.7055 22.9302 49.3465ZM15.1569 49.3465C15.1569 48.9875 15.4558 48.6909 15.8177 48.6909C16.1797 48.6909 16.4786 48.9875 16.4786 49.3465C16.4786 49.7055 16.1797 50.002 15.8177 50.002C15.4401 49.9864 15.1569 49.7055 15.1569 49.3465ZM4.58264 48.5661C4.58264 47.2082 5.69986 46.1 7.06884 46.1C8.43782 46.1 9.55504 47.2082 9.55504 48.5661C9.55504 49.924 8.43782 51.0321 7.06884 51.0321C5.69986 51.0478 4.58264 49.9396 4.58264 48.5661ZM42.5995 48.5661C42.5995 49.924 41.4822 51.0321 40.1133 51.0321C38.7443 51.0321 37.6271 49.924 37.6271 48.5661C37.6271 47.2082 38.7443 46.1 40.1133 46.1C41.4822 46.1 42.5995 47.2082 42.5995 48.5661ZM34.2282 44.1334H12.4032C12.4032 43.6964 12.4032 43.275 12.4032 42.8379H34.2282C34.2282 43.275 34.2282 43.712 34.2282 44.1334ZM39.2793 40.2158C39.2793 40.5748 38.9803 40.8713 38.6184 40.8713H6.94296C6.58104 40.8713 6.28207 40.5748 6.28207 40.2158V31.7094C6.28207 31.3504 6.58104 31.0539 6.94296 31.0539H11.3017V31.0851H15.9436V31.0539H22.3007C22.3794 31.0539 22.4738 31.0851 22.5368 31.1319L27.7137 35.3773C28.1386 35.7207 28.6736 35.908 29.2086 35.908H38.9174C39.1219 35.908 39.2793 36.0641 39.2793 36.267V40.2158ZM42.3634 38.8111C42.2218 39.1544 41.9386 39.4042 41.5924 39.4978L41.2777 39.5915V36.267C41.2777 35.3773 40.7741 34.5969 40.0188 34.2067L49.2241 17.7559C49.6017 18.2865 50.0895 18.7236 50.6875 19.0045L42.3634 38.8111ZM53.394 19.2698C53.4726 19.2542 53.5356 19.2386 53.6143 19.2074C53.6772 19.1918 53.7244 19.1606 53.7716 19.145C53.8346 19.1138 53.9132 19.0981 53.9762 19.0669C54.0234 19.0513 54.0863 19.0201 54.1335 18.9889C54.1965 18.9577 54.2594 18.9265 54.3224 18.8952C54.3696 18.864 54.4168 18.8328 54.464 18.8016C54.5269 18.7704 54.5899 18.7236 54.6371 18.6923C54.6528 18.6767 54.6685 18.6611 54.7 18.6611L57.2019 38.9515L56.9816 38.9359C56.903 38.9203 56.84 38.9203 56.7614 38.9047L53.2681 19.3167C53.3153 19.3011 53.3625 19.2854 53.394 19.2698ZM56.6197 50.8605C56.5568 50.9541 56.3994 51.1258 56.305 51.2663C55.8802 51.2194 54.9203 51.3287 54.7944 51.3287C53.8188 51.3287 52.859 51.3287 51.8834 51.3287C51.1753 51.3287 50.4829 51.3287 49.7748 51.3287C49.9794 51.1882 50.1682 50.9697 50.3256 50.6576C50.8763 49.5962 51.2697 48.41 51.726 47.3174C52.4813 45.5381 53.2209 43.7432 53.9762 41.9639C54.1493 41.5581 54.4168 41.1054 54.5584 40.6684C54.5899 40.6684 54.6371 40.6684 54.6685 40.684C54.8574 40.7777 55.2035 40.7621 55.471 40.7777L58.9014 41.1367C58.9958 41.1523 59.1059 41.1679 59.2161 41.1835C59.3262 41.7922 59.814 43.1189 59.877 43.3374C60.0028 43.8212 60.1445 44.3051 60.2704 44.8045C60.3176 44.9762 60.3805 45.1479 60.412 45.3196C60.412 45.3352 60.412 45.3508 60.412 45.3664C59.6567 46.459 58.9171 47.5672 58.1618 48.6597C57.6425 49.3777 57.139 50.1113 56.6197 50.8605Z" fill="#016B38"/>
</svg>
