<svg width="48" height="44" viewBox="0 0 48 44" fill="none" xmlns="http://www.w3.org/2000/svg">
<path d="M13.0625 9.10938C13.062 8.69512 12.8973 8.29797 12.6043 8.00504C12.3114 7.71212 11.9143 7.54735 11.5 7.54688H8.375C7.96074 7.54735 7.56359 7.71212 7.27067 8.00504C6.97775 8.29797 6.81297 8.69512 6.8125 9.10938V11.4531C6.81297 11.8674 6.97775 12.2645 7.27067 12.5575C7.56359 12.8504 7.96074 13.0152 8.375 13.0156H11.5C11.9143 13.0152 12.3114 12.8504 12.6043 12.5575C12.8973 12.2645 13.062 11.8674 13.0625 11.4531V9.10938ZM8.375 11.4531V9.10938H11.5L11.5008 11.4531H8.375ZM22.4375 9.10938C22.437 8.69512 22.2723 8.29797 21.9793 8.00504C21.6864 7.71212 21.2893 7.54735 20.875 7.54688H17.75C17.3357 7.54735 16.9386 7.71212 16.6457 8.00504C16.3527 8.29797 16.188 8.69512 16.1875 9.10938V11.4531C16.188 11.8674 16.3527 12.2645 16.6457 12.5575C16.9386 12.8504 17.3357 13.0152 17.75 13.0156H20.875C21.2893 13.0152 21.6864 12.8504 21.9793 12.5575C22.2723 12.2645 22.437 11.8674 22.4375 11.4531V9.10938ZM17.75 11.4531V9.10938H20.875L20.8758 11.4531H17.75ZM13.0625 16.1406C13.062 15.7264 12.8973 15.3292 12.6043 15.0363C12.3114 14.7434 11.9143 14.5786 11.5 14.5781H8.375C7.96074 14.5786 7.56359 14.7434 7.27067 15.0363C6.97775 15.3292 6.81297 15.7264 6.8125 16.1406V18.4844C6.81297 18.8986 6.97775 19.2958 7.27067 19.5887C7.56359 19.8816 7.96074 20.0464 8.375 20.0469H11.5C11.9143 20.0464 12.3114 19.8816 12.6043 19.5887C12.8973 19.2958 13.062 18.8986 13.0625 18.4844V16.1406ZM8.375 18.4844V16.1406H11.5L11.5008 18.4844H8.375ZM22.4375 16.1406C22.437 15.7264 22.2723 15.3292 21.9793 15.0363C21.6864 14.7434 21.2893 14.5786 20.875 14.5781H17.75C17.3357 14.5786 16.9386 14.7434 16.6457 15.0363C16.3527 15.3292 16.188 15.7264 16.1875 16.1406V18.4844C16.188 18.8986 16.3527 19.2958 16.6457 19.5887C16.9386 19.8816 17.3357 20.0464 17.75 20.0469H20.875C21.2893 20.0464 21.6864 19.8816 21.9793 19.5887C22.2723 19.2958 22.437 18.8986 22.4375 18.4844V16.1406ZM17.75 18.4844V16.1406H20.875L20.8758 18.4844H17.75ZM11.5 21.6094H8.375C7.96074 21.6098 7.56359 21.7746 7.27067 22.0675C6.97775 22.3605 6.81297 22.7576 6.8125 23.1719V25.5156C6.81297 25.9299 6.97775 26.327 7.27067 26.62C7.56359 26.9129 7.96074 27.0777 8.375 27.0781H11.5C11.9143 27.0777 12.3114 26.9129 12.6043 26.62C12.8973 26.327 13.062 25.9299 13.0625 25.5156V23.1719C13.062 22.7576 12.8973 22.3605 12.6043 22.0675C12.3114 21.7746 11.9143 21.6098 11.5 21.6094ZM8.375 25.5156V23.1719H11.5L11.5008 25.5156H8.375ZM20.875 21.6094H17.75C17.3357 21.6098 16.9386 21.7746 16.6457 22.0675C16.3527 22.3605 16.188 22.7576 16.1875 23.1719V25.5156C16.188 25.9299 16.3527 26.327 16.6457 26.62C16.9386 26.9129 17.3357 27.0777 17.75 27.0781H20.875C21.2893 27.0777 21.6864 26.9129 21.9793 26.62C22.2723 26.327 22.437 25.9299 22.4375 25.5156V23.1719C22.437 22.7576 22.2723 22.3605 21.9793 22.0675C21.6864 21.7746 21.2893 21.6098 20.875 21.6094ZM17.75 25.5156V23.1719H20.875L20.8758 25.5156H17.75ZM47.4375 20.8281C47.4375 20.7255 47.4173 20.6239 47.3781 20.5291C47.3388 20.4343 47.2813 20.3482 47.2087 20.2756C47.1362 20.2031 47.0501 20.1455 46.9553 20.1063C46.8605 20.067 46.7589 20.0468 46.6562 20.0469H24.7812C24.5761 20.0533 24.3811 20.1377 24.2359 20.2828C24.0908 20.4279 24.0064 20.623 24 20.8281V35.7828C23.4354 35.9299 22.9233 36.2323 22.5219 36.6558C22.1206 37.0793 21.846 37.6068 21.7294 38.1785C21.6128 38.7502 21.6588 39.3431 21.8623 39.89C22.0658 40.4368 22.4185 40.9156 22.8804 41.2721C23.3424 41.6285 23.895 41.8483 24.4756 41.9064C25.0561 41.9645 25.6414 41.8587 26.1648 41.6009C26.6882 41.3431 27.1289 40.9437 27.4367 40.448C27.7445 39.9524 27.9072 39.3803 27.9062 38.7969C27.9024 38.5922 27.8183 38.3973 27.6722 38.254C27.5262 38.1106 27.3296 38.0303 27.125 38.0303C26.9203 38.0303 26.7238 38.1106 26.5777 38.254C26.4316 38.3973 26.3476 38.5923 26.3438 38.7969C26.3437 39.106 26.2521 39.408 26.0804 39.665C25.9087 39.9219 25.6647 40.1222 25.3792 40.2404C25.0936 40.3587 24.7795 40.3896 24.4764 40.3293C24.1733 40.2691 23.8949 40.1202 23.6764 39.9017C23.4579 39.6832 23.3091 39.4048 23.2488 39.1017C23.1885 38.7986 23.2194 38.4844 23.3377 38.1989C23.456 37.9134 23.6562 37.6694 23.9132 37.4977C24.1701 37.326 24.4722 37.2344 24.7812 37.2344C24.8839 37.2344 24.9855 37.2142 25.0803 37.175C25.1751 37.1357 25.2612 37.0782 25.3337 37.0056C25.4063 36.9331 25.4638 36.8469 25.5031 36.7521C25.5423 36.6573 25.5625 36.5557 25.5625 36.4531V26.2969H38.3719C38.3719 26.2969 34.9746 41.8098 34.9741 41.9219H32.5938C32.3893 41.926 32.1945 42.0101 32.0513 42.1562C31.9082 42.3022 31.828 42.4986 31.828 42.7032C31.828 42.9077 31.9082 43.1041 32.0514 43.2501C32.1946 43.3962 32.3893 43.4803 32.5938 43.4844H46.6562C46.7666 43.4817 46.8752 43.4559 46.9751 43.4087C47.0749 43.3615 47.1637 43.2939 47.2359 43.2103C47.308 43.1267 47.3618 43.0289 47.3939 42.9233C47.4259 42.8176 47.4355 42.7064 47.422 42.5968C47.4085 42.4872 47.3722 42.3816 47.3154 42.2869C47.2586 42.1922 47.1826 42.1105 47.0924 42.0469C47.0021 41.9833 46.8995 41.9393 46.7912 41.9178C46.6829 41.8963 46.5713 41.8977 46.4635 41.9219C46.463 41.8113 43.0655 26.2969 43.0655 26.2969H46.6562C46.8614 26.2903 47.0563 26.2059 47.2014 26.0608C47.3465 25.9157 47.431 25.7207 47.4375 25.5156V20.8281ZM45.875 23.5348L44.0768 21.6094H45.875V23.5348ZM39.6992 24.7344L42.2785 21.9729L44.8578 24.7344H39.6992ZM33.526 21.9733L36.1028 24.7344H30.9513L33.526 21.9733ZM29.1544 24.3705L26.5786 21.6094H31.7291L29.1544 24.3705ZM35.3238 21.6094H40.48L37.9008 24.3708L35.3238 21.6094ZM25.5625 22.8109L27.3569 24.7344H25.5625V22.8109ZM44.9061 41.9219C43.4223 41.9213 38.0587 41.928 36.5375 41.9219L39.9716 26.2969H41.466L44.9061 41.9219Z" fill="#016B38" stroke="#016B38" stroke-width="0.5"/>
<path d="M22.0781 35.6719C22.0782 35.5693 22.058 35.4677 22.0187 35.3729C21.9795 35.2781 21.9219 35.1919 21.8494 35.1194C21.7768 35.0468 21.6907 34.9893 21.5959 34.95C21.5011 34.9108 21.3995 34.8906 21.2969 34.8906H18.5312V29.4219C18.5313 29.3193 18.5111 29.2177 18.4718 29.1229C18.4326 29.0281 18.375 28.9419 18.3025 28.8694C18.2299 28.7968 18.1438 28.7393 18.049 28.7C17.9542 28.6608 17.8526 28.6406 17.75 28.6406H11.5C11.3974 28.6406 11.2958 28.6608 11.201 28.7C11.1062 28.7393 11.0201 28.7968 10.9475 28.8694C10.875 28.9419 10.8174 29.0281 10.7782 29.1229C10.7389 29.2177 10.7187 29.3193 10.7188 29.4219V34.8906H3.6875V5.20312H25.5625V18.4844C25.5625 18.6916 25.6448 18.8903 25.7913 19.0368C25.9378 19.1833 26.1365 19.2656 26.3438 19.2656C26.551 19.2656 26.7497 19.1833 26.8962 19.0368C27.0427 18.8903 27.125 18.6916 27.125 18.4844V11.4531H34.1562V18.4844C34.1562 18.6916 34.2386 18.8903 34.3851 19.0368C34.5316 19.1833 34.7303 19.2656 34.9375 19.2656C35.1447 19.2656 35.3434 19.1833 35.4899 19.0368C35.6364 18.8903 35.7188 18.6916 35.7188 18.4844V11.4531C36.133 11.4527 36.5302 11.2879 36.8231 10.995C37.116 10.702 37.2808 10.3049 37.2812 9.89062V8.32812C37.2808 7.91387 37.116 7.51672 36.8231 7.22379C36.5302 6.93087 36.133 6.7661 35.7188 6.76562H27.125V5.20312C27.5393 5.20265 27.9364 5.03788 28.2293 4.74496C28.5223 4.45203 28.687 4.05488 28.6875 3.64062V2.07812C28.687 1.66387 28.5223 1.26672 28.2293 0.973794C27.9364 0.680871 27.5393 0.516099 27.125 0.515625H2.125C1.71074 0.516099 1.31359 0.680871 1.02067 0.973794C0.727746 1.26672 0.562974 1.66387 0.5625 2.07812V3.64062C0.562974 4.05488 0.727746 4.45203 1.02067 4.74496C1.31359 5.03788 1.71074 5.20265 2.125 5.20312V34.8906H1.34375C1.13919 34.8946 0.944351 34.9787 0.801097 35.1248C0.657844 35.2709 0.577602 35.4673 0.577609 35.6719C0.577616 35.8765 0.657872 36.0729 0.801136 36.219C0.9444 36.3651 1.13924 36.4491 1.3438 36.4531H21.2969C21.3995 36.4532 21.5011 36.433 21.5959 36.3937C21.6907 36.3545 21.7768 36.2969 21.8494 36.2244C21.9219 36.1518 21.9795 36.0657 22.0187 35.9709C22.058 35.8761 22.0782 35.7745 22.0781 35.6719ZM35.7188 8.32812V9.89062H27.125V8.32812H35.7188ZM2.125 2.07812H27.125L27.1258 3.64062H2.125V2.07812ZM12.2812 34.8906V30.2031H16.9688V34.8906H12.2812Z" fill="#016B38" stroke="#016B38" stroke-width="0.5"/>
</svg>
