<svg width="17" height="17" viewBox="0 0 17 17" fill="none" xmlns="http://www.w3.org/2000/svg">
<path fill-rule="evenodd" clip-rule="evenodd" d="M14.1026 2.92887C13.3749 2.19639 12.5091 1.6156 11.5554 1.22012C10.6016 0.824654 9.57887 0.622371 8.54637 0.624995C4.21688 0.624995 0.692375 4.14862 0.690625 8.47987C0.690625 9.86412 1.052 11.2151 1.73887 12.4069L0.625 16.4765L4.78912 15.3836C5.94097 16.0106 7.23142 16.3394 8.54287 16.34H8.54637C12.875 16.34 16.3995 12.8164 16.4012 8.48512C16.4042 7.45304 16.2026 6.43061 15.8081 5.47692C15.4135 4.52323 14.8339 3.6572 14.1026 2.92887V2.92887ZM8.54637 15.0144H8.54375C7.37433 15.0145 6.22643 14.6999 5.2205 14.1035L4.9825 13.9617L2.5115 14.6101L3.17037 12.2012L3.0155 11.9545C2.36169 10.9136 2.01558 9.70905 2.01712 8.47987C2.01887 4.88012 4.9475 1.95149 8.549 1.95149C9.40672 1.94959 10.2563 2.11782 11.0486 2.44644C11.8408 2.77506 12.5601 3.25756 13.1646 3.86599C13.7724 4.47153 14.2542 5.19153 14.582 5.98437C14.9099 6.77721 15.0774 7.62717 15.0747 8.48512C15.073 12.0849 12.1444 15.0144 8.54637 15.0144ZM12.1277 10.124C11.9309 10.0251 10.9666 9.55087 10.7864 9.48524C10.607 9.41962 10.4766 9.38724 10.3454 9.58324C10.2141 9.77924 9.83787 10.2211 9.72325 10.3524C9.60862 10.4836 9.494 10.4994 9.298 10.4014C9.102 10.3034 8.46937 10.096 7.7195 9.42749C7.13587 8.90687 6.74212 8.26462 6.6275 8.06774C6.51287 7.87087 6.61525 7.76499 6.71412 7.66699C6.8025 7.57949 6.91012 7.43774 7.00812 7.32312C7.10612 7.20849 7.1385 7.12712 7.20412 6.99587C7.26975 6.86462 7.23737 6.74999 7.1875 6.65199C7.1385 6.55312 6.74562 5.58712 6.582 5.19424C6.42362 4.81362 6.26175 4.86437 6.141 4.85912C6.01594 4.854 5.89079 4.85167 5.76562 4.85212C5.6661 4.85466 5.56817 4.87773 5.47798 4.91989C5.38779 4.96205 5.30728 5.02239 5.2415 5.09712C5.06125 5.29399 4.55462 5.76824 4.55462 6.73424C4.55462 7.70024 5.25812 8.63387 5.35612 8.76512C5.45412 8.89637 6.74037 10.8782 8.70912 11.7287C9.17812 11.9309 9.54387 12.0516 9.82825 12.1426C10.2981 12.2922 10.726 12.2704 11.0646 12.2205C11.4417 12.1645 12.2257 11.7462 12.3894 11.2877C12.553 10.8292 12.553 10.4364 12.504 10.3541C12.455 10.2719 12.3229 10.222 12.1277 10.124" fill="white"/>
</svg>
